<svg preserveAspectRatio="none" width="100%" height="100%" overflow="visible" style="display: block;" viewBox="0 0 24 24" fill="none" xmlns="http://www.w3.org/2000/svg">
<g id="Icon">
<path id="Subtract" d="M10.9992 4.49982C10.9994 3.94776 11.4476 3.49923 11.9997 3.49923C12.5516 3.49939 12.9992 3.94734 12.9996 4.49913L12.9989 10.9991L19.4893 10.9998C20.0413 11 20.489 11.4477 20.4892 11.9997C20.4889 12.5517 20.0413 12.9994 19.4893 12.9996L12.9989 12.9989L12.9996 19.4892C12.9994 20.0412 12.5517 20.489 11.9997 20.4891C11.4475 20.4891 10.9992 20.0408 10.9992 19.4885L10.9985 12.9996L4.49986 12.9989C3.94761 12.9989 3.49996 12.5513 3.49996 11.999C3.50028 11.447 3.9478 10.9992 4.49986 10.9991L10.9985 10.9998L10.9992 4.49982Z" fill="var(--fill-0, #929292)"/>
</g>
</svg>
