<svg preserveAspectRatio="none" width="100%" height="100%" overflow="visible" style="display: block;" viewBox="0 0 24 24" fill="none" xmlns="http://www.w3.org/2000/svg">
<g id="Icon">
<path id="Subtract" d="M13.7246 7.28808C13.7248 5.63096 15.0684 4.28711 16.7256 4.28711C18.3825 4.28742 19.7254 5.63115 19.7256 7.28808L19.7256 16.2754C19.7256 17.9325 18.3826 19.2761 16.7256 19.2764C15.0683 19.2764 13.7246 17.9326 13.7246 16.2754L13.7246 7.28808ZM4.72266 7.28808C4.72282 5.63096 6.06647 4.28711 7.72363 4.28711C9.38075 4.28716 10.7244 5.631 10.7246 7.28808L10.7246 16.2754C10.7246 17.9326 9.38085 19.2763 7.72363 19.2764C6.06637 19.2764 4.72266 17.9326 4.72266 16.2754L4.72266 7.28808Z" fill="var(--fill-0, #929292)"/>
</g>
</svg>
